<svg fill="none" height="34" viewBox="0 0 181 34" width="181" xmlns="http://www.w3.org/2000/svg" xmlns:xlink="http://www.w3.org/1999/xlink"><filter id="a" color-interpolation-filters="sRGB" filterUnits="userSpaceOnUse" height="26.6957" width="23.957" x="5.38672" y="3.65222"><feFlood flood-opacity="0" result="BackgroundImageFix"/><feColorMatrix in="SourceAlpha" result="hardAlpha" type="matrix" values="0 0 0 0 0 0 0 0 0 0 0 0 0 0 0 0 0 0 127 0"/><feOffset dy="1"/><feGaussianBlur stdDeviation="1"/><feComposite in2="hardAlpha" operator="out"/><feColorMatrix type="matrix" values="0 0 0 0 0 0 0 0 0 0 0 0 0 0 0 0 0 0 0.23 0"/><feBlend in2="BackgroundImageFix" mode="normal" result="effect1_dropShadow_833_2144"/><feColorMatrix in="SourceAlpha" result="hardAlpha" type="matrix" values="0 0 0 0 0 0 0 0 0 0 0 0 0 0 0 0 0 0 127 0"/><feOffset dy="-1"/><feGaussianBlur stdDeviation="1"/><feComposite in2="hardAlpha" operator="out"/><feColorMatrix type="matrix" values="0 0 0 0 1 0 0 0 0 1 0 0 0 0 1 0 0 0 0.35 0"/><feBlend in2="effect1_dropShadow_833_2144" mode="normal" result="effect2_dropShadow_833_2144"/><feBlend in="SourceGraphic" in2="effect2_dropShadow_833_2144" mode="normal" result="shape"/></filter><linearGradient id="b" gradientUnits="userSpaceOnUse" x1="26.6806" x2="1.82202" y1="29.75" y2=".166463"><stop offset="0" stop-color="#365cf5"/><stop offset="1" stop-color="#946fff"/></linearGradient><linearGradient id="c" gradientUnits="userSpaceOnUse" x1="19.9523" x2="19.9523" y1="6.65222" y2="32.5218"><stop offset="0" stop-color="#fff"/><stop offset="1" stop-color="#fff" stop-opacity="0"/></linearGradient><linearGradient id="d" gradientUnits="userSpaceOnUse" x1="11.0824" x2="11.0824" y1="8.13045" y2="27.3478"><stop offset="0" stop-color="#fff" stop-opacity="0"/><stop offset="1" stop-color="#fff"/></linearGradient><g fill="#1a2142"><path d="m48.7808 27.451v-19.84557h7.4054c1.3497 0 2.5396.24862 3.5696.74587 1.0478.47949 1.8647 1.18985 2.4507 2.1311.5861.9234.8791 2.0511.8791 3.383 0 1.3142-.3019 2.4419-.9057 3.3831-.5861.9235-1.3941 1.6338-2.4241 2.1311-1.03.4972-2.2199.7459-3.5696.7459h-3.7826v7.3255zm3.6228-10.5221h3.8359c.6571 0 1.2254-.1243 1.7049-.373.4795-.2664.8524-.6304 1.1188-1.0921.2664-.4618.3996-.9945.3996-1.5984 0-.6215-.1332-1.1543-.3996-1.5983-.2664-.4617-.6393-.8169-1.1188-1.0655-.4795-.2664-1.0478-.3996-1.7049-.3996h-3.8359z"/><path d="m65.2283 27.451v-20.16523h3.4896v20.16523z"/><path d="m75.8025 27.7707c-1.0123 0-1.8913-.1687-2.6372-.5061-.7459-.3375-1.3231-.817-1.7315-1.4385-.4085-.6393-.6127-1.3763-.6127-2.211 0-.7992.1776-1.5095.5328-2.1311.3552-.6393.9057-1.1721 1.6516-1.5983.7458-.4262 1.6871-.7281 2.8236-.9057l4.7417-.7725v2.6638l-4.0757.6926c-.6926.1244-1.2076.3463-1.545.666-.3375.3197-.5062.737-.5062 1.252 0 .4973.1865.8968.5594 1.1987.3907.2842.8702.4262 1.4385.4262.7281 0 1.3674-.1509 1.918-.4528.5683-.3197 1.0034-.7548 1.3053-1.3053.3196-.5505.4794-1.1543.4794-1.8114v-3.7294c0-.6215-.2486-1.1365-.7458-1.545-.4795-.4262-1.1188-.6393-1.918-.6393-.7459 0-1.4118.2042-1.9979.6127-.5683.3907-.9856.9145-1.252 1.5716l-2.8503-1.3852c.2842-.7636.7281-1.4207 1.3319-1.9712.6216-.5683 1.3497-1.0123 2.1844-1.3319.8347-.3197 1.7404-.4795 2.7171-.4795 1.1898 0 2.2376.222 3.1433.6659.9057.4263 1.6072 1.0301 2.1045 1.8115.515.7636.7725 1.6604.7725 2.6904v9.6431h-3.3032v-2.4773l.7459-.0533c-.3729.6215-.8169 1.1454-1.3319 1.5716-.515.4085-1.1011.7282-1.7582.959-.657.2131-1.3852.3197-2.1843.3197z"/><path d="m86.3267 27.451v-14.4913h3.4897v14.4913zm1.7448-16.1162c-.9636 0-1.7448-.7812-1.7448-1.74481 0-.96364.7812-1.80002 1.7448-1.80002.9637 0 1.7449.83638 1.7449 1.80001 0 .96362-.7812 1.74482-1.7449 1.74482z"/><path d="m92.5056 27.451v-14.4913h3.2765v2.8504l-.2664-.5062c.3374-.8702.888-1.5272 1.6516-1.9712.7814-.4618 1.6871-.6926 2.7171-.6926 1.0656 0 2.0066.2308 2.8236.6926.835.4617 1.483 1.1099 1.945 1.9446.461.8169.692 1.767.692 2.8503v9.3234h-3.489v-8.4976c0-.6393-.125-1.1899-.373-1.6516-.249-.4617-.595-.8169-1.039-1.0655-.426-.2664-.9325-.3996-1.5186-.3996-.5682 0-1.0744.1332-1.5183.3996-.444.2486-.7903.6038-1.0389 1.0655-.2487.4617-.373 1.0123-.373 1.6516v8.4976z"/><path d="m106.431 27.451 7.113-19.84557h3.09l7.112 19.84557h-2.797l-1.625-4.6617h-8.471l-1.625 4.6617zm5.248-7.0591h6.82l-3.783-10.89515h.746z"/><path d="m130.628 27.7707c-1.349 0-2.566-.3286-3.649-.9856-1.066-.6571-1.909-1.5539-2.531-2.6905-.621-1.1366-.932-2.4063-.932-3.8093 0-1.4385.311-2.7171.932-3.8359.622-1.1366 1.465-2.0334 2.531-2.6905 1.083-.6571 2.3-.9856 3.649-.9856 1.19 0 2.247.2575 3.17.7725.924.4972 1.652 1.1721 2.185 2.0245l-.4.6127v-8.89723h2.504v20.16523h-2.424v-3.0634l.32.4262c-.498.9412-1.226 1.6694-2.185 2.1844-.941.515-1.998.7725-3.17.7725zm.213-2.3975c.906 0 1.714-.222 2.424-.6659.711-.444 1.27-1.0478 1.679-1.8114.426-.7814.639-1.6516.639-2.6106 0-.9767-.213-1.8469-.639-2.6106-.409-.7814-.968-1.394-1.679-1.838-.71-.444-1.518-.666-2.424-.666-.888 0-1.696.2309-2.424.6926-.71.444-1.27 1.0478-1.678 1.8114-.408.7459-.613 1.6161-.613 2.6106 0 .959.205 1.8292.613 2.6106.408.7636.968 1.3674 1.678 1.8114.711.4439 1.519.6659 2.424.6659z"/><path d="m140.59 27.451v-14.3581h2.424v2.9303l-.347-.4529c.356-.9057.924-1.5983 1.705-2.0778.782-.4795 1.661-.7192 2.637-.7192 1.119 0 2.123.3108 3.011.9323.905.6216 1.527 1.4385 1.864 2.4507l-.692.0267c.373-1.1188 1.003-1.9624 1.891-2.5307.888-.586 1.874-.879 2.957-.879.994 0 1.891.2308 2.69.6926.817.4617 1.465 1.101 1.945 1.9179.479.8169.719 1.7404.719 2.7704v9.2968h-2.504v-8.4976c0-.7992-.142-1.474-.426-2.0245-.284-.5506-.675-.9768-1.172-1.2787-.48-.3196-1.048-.4795-1.705-.4795-.639 0-1.217.1599-1.732.4795-.497.3019-.896.737-1.198 1.3053-.284.5505-.426 1.2165-.426 1.9979v8.4976h-2.504v-8.4976c0-.7992-.143-1.474-.427-2.0245-.284-.5506-.675-.9768-1.172-1.2787-.479-.3196-1.048-.4795-1.705-.4795-.639 0-1.216.1599-1.731.4795-.497.3019-.897.737-1.199 1.3053-.284.5505-.426 1.2165-.426 1.9979v8.4976z"/><path d="m163.581 27.6535v-14.3581h2.477v14.3581z"/><path d="m168.57 27.451v-14.3581h2.424v2.7971l-.399-.2398c.355-.9057.923-1.6072 1.705-2.1044.799-.515 1.731-.7725 2.797-.7725 1.03 0 1.944.2308 2.743.6926.817.4617 1.457 1.101 1.918 1.9179.48.8169.72 1.7404.72 2.7704v9.2968h-2.504v-8.4976c0-.7992-.142-1.474-.427-2.0245-.284-.5506-.692-.9768-1.225-1.2787-.515-.3196-1.11-.4795-1.785-.4795s-1.278.1599-1.811.4795c-.515.3019-.924.737-1.226 1.3053-.301.5505-.452 1.2165-.452 1.9979v8.4976z"/><path d="m164.745 11.5358c.872 0 1.579-.7068 1.579-1.5786 0-.87183-.707-1.57858-1.579-1.57858s-1.578.70675-1.578 1.57857c0 .87181.706 1.57861 1.578 1.57861z"/></g><path d="m0 14.7826c0-6.96858 0-10.45287 2.16486-12.61774 2.16487-2.16486 5.64916-2.16486 12.61774-2.16486h4.4348c6.9686 0 10.4529 0 12.6177 2.16486 2.1649 2.16487 2.1649 5.64916 2.1649 12.61774v4.4348c0 6.9686 0 10.4529-2.1649 12.6177-2.1648 2.1649-5.6491 2.1649-12.6177 2.1649h-4.4348c-6.96858 0-10.45287 0-12.61774-2.1649-2.16486-2.1648-2.16486-5.6491-2.16486-12.6177z" fill="url(#b)"/><g filter="url(#a)"><path d="m27.3436 14.0435c0 4.0821-3.3092 7.3913-7.3913 7.3913s-7.3913-3.3092-7.3913-7.3913c0-4.08208 3.3092-7.39128 7.3913-7.39128s7.3913 3.3092 7.3913 7.39128z" fill="url(#c)"/><path d="m14.778 23.6522c0 2.041-1.6546 3.6956-3.6956 3.6956-2.04108 0-3.69568-1.6546-3.69568-3.6956 0-2.0411 1.6546-3.6957 3.69568-3.6957 2.041 0 3.6956 1.6546 3.6956 3.6957z" fill="url(#d)"/></g></svg>