<?xml version="1.0" encoding="UTF-8"?>
<svg id="Layer_1" data-name="Layer 1" xmlns="http://www.w3.org/2000/svg" viewBox="0 0 284.22 305.65">
  <defs>
    <style>
      .cls-1 {
        fill: #41b6e9;
      }

      .cls-1, .cls-2, .cls-3, .cls-4 {
        stroke-width: 0px;
      }

      .cls-5 {
        fill: #231f20;
        font-family: JosefinSansItalic-SemiBold, 'Josefin Sans';
        font-size: 68.92px;
        font-variation-settings: 'wght' 600;
        font-weight: 600;
      }

      .cls-2 {
        fill: #40b5e8;
      }

      .cls-3 {
        fill: #fff;
      }

      .cls-6 {
        letter-spacing: -.1em;
      }

      .cls-4 {
        fill: #4cbbeb;
      }
    </style>
  </defs>
  <g>
    <path class="cls-4" d="M105.86,33.94c-9.85,1.52-18.64,5.25-26.16,11.94-3.22,2.87-5.83,6.28-9.03,9.71,4.91-24.67,21.44-46.05,46.81-52.59,3.44-.89,7.19-.77,10.28-2.92h26.89c20.24,1.8,35.9,12.15,49.59,26.29,4.94,5.1,9.93,10.14,15.53,14.59,16.07,12.77,38.71,11.78,53.49-2.53,1.9-1.84,3.7-3.79,5.66-5.57,1.18-1.07,2.22-2.58,4.21-2.01-6.87,29.59-26.91,49.86-56.89,53.72-10.62,1.37-21.08.94-31.59-.91-14.3-2.51-26.53-9.01-37.16-18.67-3.43-3.12-6.72-6.39-9.94-9.72-10-10.31-20.44-19.84-35.73-21.3-1.98-1.05-3.96-.97-5.95-.05Z"/>
    <path class="cls-3" d="M283.13,30.87c-2.36,1.07-3.73,3.24-5.37,5.04-17.77,19.49-44.74,21-64.48,1.25-6.9-6.9-13.49-14.11-21.18-20.21-9.5-7.53-20.03-12.73-31.99-15.08-1.82-.36-4-.13-5.45-1.78C196.65.08,238.64.12,280.63,0c2.97,0,3.66.58,3.57,3.56-.25,8.77-.09,17.55-.09,26.32-.33.33-.66.65-.99.98Z"/>
    <path class="cls-4" d="M33.16,119.37c-12.35,2.22-22.57,8.09-30.58,17.75-.66.79-1.49,1.32-2.59.74,7.92-33.1,33.07-52.29,67.08-52.2,1.95.59,3.9.6,5.85,0,19.49.23,36.74,6.39,51.2,19.6,6.72,6.14,13.12,12.62,19.77,18.83,18.22,17,42.08,16.71,60.08-.58,2.35-2.26,4.12-5.14,7.17-6.88-6.17,31.13-29.98,51.01-59.95,53.63-28.12,2.45-51.89-5.41-71.43-25.79-2.18-2.27-4.49-4.41-6.65-6.7-8.82-9.31-18.67-16.82-31.96-18.4-2.67-.93-5.33-.97-7.99.02Z"/>
    <path class="cls-1" d="M33.16,119.37c2.66-1.66,5.32-1.62,7.99-.02-2.66,0-5.33.01-7.99.02Z"/>
    <path class="cls-1" d="M105.86,33.94c2-1.62,3.98-1.67,5.95.05-1.98-.01-3.97-.03-5.95-.05Z"/>
    <path class="cls-2" d="M72.93,85.65c-1.95,1.33-3.9,1.33-5.85,0,1.95,0,3.9,0,5.85,0Z"/>
  </g>
  <text class="cls-5" transform="translate(12 285.8)"><tspan class="cls-6" x="0" y="0">T</tspan><tspan x="33.02" y="0">ailwind</tspan></text>
</svg>